{"asset":{"version":"2.0","generator":"THREE.GLTFExporter"},"scenes":[{"name":"AuxScene","nodes":[9]}],"scene":0,"nodes":[{"mesh":0},{"mesh":1},{},{},{},{"matrix":[1,0,0,0,0,-1,1.2246467991473532e-16,0,0,-1.2246467991473532e-16,-1,0,-0.7,0.5,0,1],"children":[0,1,2,3,4]},{"children":[5]},{"matrix":[1,0,0,0,0,1,0,0,0,0,1,0,-300.8000060796737,289.00000607967377,19.999999999999964,1],"children":[6]},{"children":[7]},{"children":[8]}],"bufferViews":[{"buffer":0,"byteOffset":0,"byteLength":221616,"target":34962,"byteStride":12},{"buffer":0,"byteOffset":221616,"byteLength":147744,"target":34962,"byteStride":8},{"buffer":0,"byteOffset":369360,"byteLength":221616,"target":34962,"byteStride":12},{"buffer":0,"byteOffset":590976,"byteLength":206352,"target":34962,"byteStride":12},{"buffer":0,"byteOffset":797328,"byteLength":137568,"target":34962,"byteStride":8},{"buffer":0,"byteOffset":934896,"byteLength":206352,"target":34962,"byteStride":12}],"buffers":[{"byteLength":1141248,"uri":"data:application/octet-stream;base64,"}],"accessors":[{"bufferView":0,"componentType":5126,"count":18468,"max":[605.7000122070312,266.70001220703125,50],"min":[-2.700000047683716,-2.700000047683716,-10],"type":"VEC3"},{"bufferView":1,"componentType":5126,"count":18468,"max":[605.7000122070312,262.20001220703125],"min":[-1.6260414123535156,-49],"type":"VEC2"},{"bufferView":2,"componentType":5126,"count":18468,"max":[1,1,1],"min":[-1,-1,-1],"type":"VEC3"},{"bufferView":3,"componentType":5126,"count":17196,"max":[605.7000122070312,581.7000122070312,50],"min":[-2.700000047683716,311.29998779296875,-10],"type":"VEC3"},{"bufferView":4,"componentType":5126,"count":17196,"max":[605.7000122070312,577.2000122070312],"min":[-2.700000047683716,-49],"type":"VEC2"},{"bufferView":5,"componentType":5126,"count":17196,"max":[1,1,1],"min":[-1,-1,-1],"type":"VEC3"}],"materials":[{"pbrMetallicRoughness":{"metallicFactor":0,"roughnessFactor":1},"doubleSided":true},{"pbrMetallicRoughness":{"metallicFactor":0,"roughnessFactor":1},"doubleSided":true}],"meshes":[{"primitives":[{"mode":4,"attributes":{"POSITION":0,"TEXCOORD_0":1,"NORMAL":2},"material":0}]},{"primitives":[{"mode":4,"attributes":{"POSITION":3,"TEXCOORD_0":4,"NORMAL":5},"material":1}]}]}